<mxfile host="app.diagrams.net" agent="Mozilla/5.0 (X11; Linux x86_64) AppleWebKit/537.36 (KHTML, like Gecko) Chrome/138.0.0.0 Safari/537.36" version="28.1.0">
  <diagram name="Page-1" id="J8MKDITBmS4fTM83d-7y">
    <mxGraphModel dx="435" dy="819" grid="1" gridSize="10" guides="1" tooltips="1" connect="1" arrows="1" fold="1" page="1" pageScale="1" pageWidth="850" pageHeight="1100" math="0" shadow="0">
      <root>
        <mxCell id="0" />
        <mxCell id="1" parent="0" />
        <mxCell id="5-oZg9YzhktVUdlRkIhd-1" value="Master" style="html=1;whiteSpace=wrap;" parent="1" vertex="1">
          <mxGeometry x="90" y="120" width="160" height="90" as="geometry" />
        </mxCell>
        <mxCell id="5-oZg9YzhktVUdlRkIhd-2" value="&amp;lt;&amp;lt;abstract&amp;gt;&amp;gt;&lt;br&gt;DistribuitionStrategy" style="html=1;whiteSpace=wrap;" parent="1" vertex="1">
          <mxGeometry x="430" y="80" width="160" height="90" as="geometry" />
        </mxCell>
        <mxCell id="5-oZg9YzhktVUdlRkIhd-3" value="&amp;lt;&amp;lt;abstract&amp;gt;&amp;gt;&lt;br&gt;CloudManager" style="html=1;whiteSpace=wrap;" parent="1" vertex="1">
          <mxGeometry x="450" y="260" width="160" height="90" as="geometry" />
        </mxCell>
        <mxCell id="5-oZg9YzhktVUdlRkIhd-10" value="1" style="endArrow=open;html=1;endSize=12;startArrow=diamondThin;startSize=14;startFill=1;edgeStyle=orthogonalEdgeStyle;align=left;verticalAlign=bottom;rounded=0;entryX=0;entryY=0.5;entryDx=0;entryDy=0;" parent="1" target="5-oZg9YzhktVUdlRkIhd-3" edge="1">
          <mxGeometry x="-1" y="3" relative="1" as="geometry">
            <mxPoint x="250" y="180" as="sourcePoint" />
            <mxPoint x="410" y="180" as="targetPoint" />
          </mxGeometry>
        </mxCell>
        <mxCell id="5-oZg9YzhktVUdlRkIhd-11" value="1" style="endArrow=open;html=1;endSize=12;startArrow=diamondThin;startSize=14;startFill=1;edgeStyle=orthogonalEdgeStyle;align=left;verticalAlign=bottom;rounded=0;entryX=0;entryY=0.5;entryDx=0;entryDy=0;" parent="1" target="5-oZg9YzhktVUdlRkIhd-2" edge="1">
          <mxGeometry x="-1" y="3" relative="1" as="geometry">
            <mxPoint x="250" y="150" as="sourcePoint" />
            <mxPoint x="410" y="150" as="targetPoint" />
          </mxGeometry>
        </mxCell>
        <mxCell id="snHXpLitYrYADWmI_NJr-2" value="Master" style="swimlane;fontStyle=1;align=center;verticalAlign=top;childLayout=stackLayout;horizontal=1;startSize=26;horizontalStack=0;resizeParent=1;resizeParentMax=0;resizeLast=0;collapsible=1;marginBottom=0;whiteSpace=wrap;html=1;" vertex="1" parent="1">
          <mxGeometry x="90" y="420" width="340" height="216" as="geometry" />
        </mxCell>
        <mxCell id="snHXpLitYrYADWmI_NJr-3" value="- _user_function_serialized: Optional[bytes]&lt;div&gt;- _task_metadata: List[dict]&lt;/div&gt;&lt;div&gt;+ cloud_manager: CloudManager&lt;/div&gt;&lt;div&gt;+ distribuition_strategy: DistribuitionStrategy&lt;/div&gt;" style="text;strokeColor=none;fillColor=none;align=left;verticalAlign=top;spacingLeft=4;spacingRight=4;overflow=hidden;rotatable=0;points=[[0,0.5],[1,0.5]];portConstraint=eastwest;whiteSpace=wrap;html=1;" vertex="1" parent="snHXpLitYrYADWmI_NJr-2">
          <mxGeometry y="26" width="340" height="84" as="geometry" />
        </mxCell>
        <mxCell id="snHXpLitYrYADWmI_NJr-4" value="" style="line;strokeWidth=1;fillColor=none;align=left;verticalAlign=middle;spacingTop=-1;spacingLeft=3;spacingRight=3;rotatable=0;labelPosition=right;points=[];portConstraint=eastwest;strokeColor=inherit;" vertex="1" parent="snHXpLitYrYADWmI_NJr-2">
          <mxGeometry y="110" width="340" height="8" as="geometry" />
        </mxCell>
        <mxCell id="snHXpLitYrYADWmI_NJr-5" value="+ __init__(cloud_manager, distribuition_strategy)&lt;div&gt;- _serialize_function(user_function): void&lt;/div&gt;&lt;div&gt;+ run(data_input, user_function): List[Union[Any, Exception]]&lt;/div&gt;&lt;div&gt;+ reduce(results_list, reduce_function): Any&lt;/div&gt;&lt;div&gt;+ get_task_statuses(): List[dict]&lt;/div&gt;" style="text;strokeColor=none;fillColor=none;align=left;verticalAlign=top;spacingLeft=4;spacingRight=4;overflow=hidden;rotatable=0;points=[[0,0.5],[1,0.5]];portConstraint=eastwest;whiteSpace=wrap;html=1;" vertex="1" parent="snHXpLitYrYADWmI_NJr-2">
          <mxGeometry y="118" width="340" height="98" as="geometry" />
        </mxCell>
        <mxCell id="snHXpLitYrYADWmI_NJr-8" value="&lt;p style=&quot;margin:0px;margin-top:4px;text-align:center;&quot;&gt;&lt;b&gt;&amp;lt;&amp;lt;abstract&amp;gt;&amp;gt;&lt;/b&gt;&lt;/p&gt;&lt;p style=&quot;margin:0px;margin-top:4px;text-align:center;&quot;&gt;&lt;b&gt;DistribuitionStrategy&lt;/b&gt;&lt;/p&gt;&lt;hr size=&quot;1&quot; style=&quot;border-style:solid;&quot;&gt;&lt;div style=&quot;height:2px;&quot;&gt;&lt;/div&gt;&lt;hr size=&quot;1&quot; style=&quot;border-style:solid;&quot;&gt;&lt;div style=&quot;height:2px;&quot;&gt;&amp;nbsp;+ split_data(data_input, num_target_splits): list&lt;span style=&quot;white-space: pre;&quot;&gt;&#x9;&lt;/span&gt;&amp;nbsp;&lt;/div&gt;" style="verticalAlign=top;align=left;overflow=fill;html=1;whiteSpace=wrap;" vertex="1" parent="1">
          <mxGeometry x="120" y="670" width="300" height="100" as="geometry" />
        </mxCell>
        <mxCell id="snHXpLitYrYADWmI_NJr-9" value="&lt;p style=&quot;margin:0px;margin-top:4px;text-align:center;&quot;&gt;&lt;b&gt;&amp;lt;&amp;lt;abstract&amp;gt;&amp;gt;&lt;/b&gt;&lt;/p&gt;&lt;p style=&quot;margin:0px;margin-top:4px;text-align:center;&quot;&gt;&lt;b&gt;CloudManager&lt;/b&gt;&lt;/p&gt;&lt;hr size=&quot;1&quot; style=&quot;border-style:solid;&quot;&gt;&lt;div style=&quot;height:2px;&quot;&gt;&lt;/div&gt;&lt;hr size=&quot;1&quot; style=&quot;border-style:solid;&quot;&gt;&lt;div style=&quot;height:2px;&quot;&gt;&amp;nbsp;+&lt;span style=&quot;white-space: pre;&quot;&gt;&#x9;&lt;/span&gt;&amp;nbsp;&lt;/div&gt;" style="verticalAlign=top;align=left;overflow=fill;html=1;whiteSpace=wrap;" vertex="1" parent="1">
          <mxGeometry x="590" y="650" width="300" height="100" as="geometry" />
        </mxCell>
        <mxCell id="snHXpLitYrYADWmI_NJr-10" value="&lt;p style=&quot;margin:0px;margin-top:4px;text-align:center;&quot;&gt;&lt;b style=&quot;background-color: transparent; color: light-dark(rgb(0, 0, 0), rgb(255, 255, 255));&quot;&gt;GlobusComputeManager&lt;/b&gt;&lt;/p&gt;&lt;hr size=&quot;1&quot; style=&quot;border-style:solid;&quot;&gt;&lt;div style=&quot;height:2px;&quot;&gt;&lt;/div&gt;&lt;hr size=&quot;1&quot; style=&quot;border-style:solid;&quot;&gt;&lt;div style=&quot;height:2px;&quot;&gt;&amp;nbsp;+ &lt;span style=&quot;white-space: pre;&quot;&gt;&#x9;&lt;/span&gt;&amp;nbsp;&lt;/div&gt;" style="verticalAlign=top;align=left;overflow=fill;html=1;whiteSpace=wrap;" vertex="1" parent="1">
          <mxGeometry x="590" y="820" width="300" height="100" as="geometry" />
        </mxCell>
        <mxCell id="snHXpLitYrYADWmI_NJr-15" value="Extends" style="endArrow=block;endSize=16;endFill=0;html=1;rounded=0;entryX=0.465;entryY=1.009;entryDx=0;entryDy=0;entryPerimeter=0;" edge="1" parent="1" target="snHXpLitYrYADWmI_NJr-9">
          <mxGeometry width="160" relative="1" as="geometry">
            <mxPoint x="730" y="820" as="sourcePoint" />
            <mxPoint x="890" y="820" as="targetPoint" />
            <Array as="points">
              <mxPoint x="730" y="790" />
            </Array>
          </mxGeometry>
        </mxCell>
      </root>
    </mxGraphModel>
  </diagram>
</mxfile>
